# xmcd
#
# Track frame offsets:
# 150
# 12497
# 24617
# 37916
# 51475
# 65302
# 75660
# 90304
# 101148
# 113872
# 128668
# 141347
# 155010
# 167310
# 183341
# 197640
# 211347
#
# Disc length: 3006 seconds
#
#
# Revision: 0
# Processed by: cddbd v1.4PL0 Copyright (c) Steve Scherf et al.
# Submitted via: FreeRIP 2.35 
#
DISCID=e00bbc11
DTITLE=Various Artist - Songs for a Lazy Sunday
DYEAR=1900
DGENRE=Blues
TTITLE0=Undecided
TTITLE1=That Old Black Magic
TTITLE2=Flamingo
TTITLE3=Moonglow
TTITLE4=What'll I Do
TTITLE5=Nice Work If You Can Get It
TTITLE6=I've Got A Crush On You
TTITLE7=Sippin' At Bells
TTITLE8=Too Marvelous For Words
TTITLE9=I've Got You Under My Skin
TTITLE10=Someone To Watch Over Me
TTITLE11=Just Friends
TTITLE12=Sophisticated Lady
TTITLE13=Lover Come Back To Me
TTITLE14=Nevertheless
TTITLE15=Parker's Mood
TTITLE16=Stormy Weather
EXTD=
EXTT0=
EXTT1=
EXTT2=
EXTT3=
EXTT4=
EXTT5=
EXTT6=
EXTT7=
EXTT8=
EXTT9=
EXTT10=
EXTT11=
EXTT12=
EXTT13=
EXTT14=
EXTT15=
EXTT16=
PLAYORDER=
